<?xml version="1.0" standalone="no"?><!DOCTYPE svg PUBLIC "-//W3C//DTD SVG 1.1//EN" "http://www.w3.org/Graphics/SVG/1.1/DTD/svg11.dtd"><svg class="icon" width="200px" height="200.00px" viewBox="0 0 1024 1024" version="1.1" xmlns="http://www.w3.org/2000/svg"><path d="M104 520h312v288H104z" fill="#FFC6C8" /><path d="M211.2 960c-55.2 0-107.2-22.4-143.2-60.8-33.6-36-49.6-81.6-47.2-128.8l15.2-235.2C42.4 441.6 125.6 368 226.4 368h576c101.6 0 185.6 74.4 190.4 169.6l12 235.2c2.4 47.2-14.4 92-48 127.2-36 38.4-88 60-142.4 60H211.2zM160 624c-22.4 0-40 17.6-40 40s17.6 40 40 40h32c13.6 0 24 10.4 24 24v32c0 22.4 17.6 40 40 40s40-17.6 40-40v-32c0-13.6 10.4-24 24-24h32c22.4 0 40-17.6 40-40s-17.6-40-40-40h-32c-13.6 0-24-10.4-24-24v-32c0-22.4-17.6-40-40-40s-40 17.6-40 40v32c0 13.6-10.4 24-24 24h-32z" fill="#F2E176" /><path d="M803.2 376c97.6 0 177.6 71.2 182.4 162.4l12 235.2c2.4 44.8-13.6 88-45.6 121.6-34.4 36.8-84.8 57.6-136.8 57.6H211.2c-52.8 0-103.2-21.6-137.6-58.4-32-33.6-48-77.6-44.8-122.4l15.2-235.2c5.6-89.6 86.4-160 182.4-160h280l296.8-0.8M160 712h32c8.8 0 16 7.2 16 16v32c0 26.4 21.6 48 48 48s48-21.6 48-48v-32c0-8.8 7.2-16 16-16h32c26.4 0 48-21.6 48-48s-21.6-48-48-48h-32c-8.8 0-16-7.2-16-16v-32c0-26.4-21.6-48-48-48s-48 21.6-48 48v32c0 8.8-7.2 16-16 16h-32c-26.4 0-48 21.6-48 48s21.6 48 48 48m643.2-352h-576c-104.8 0-192 76.8-198.4 175.2L13.6 770.4C6.4 877.6 97.6 968 212 968H816c113.6 0 204-88.8 198.4-196l-12-235.2c-6.4-99.2-93.6-176.8-199.2-176.8zM160 696c-17.6 0-32-14.4-32-32s14.4-32 32-32h32c17.6 0 32-14.4 32-32v-32c0-17.6 14.4-32 32-32s32 14.4 32 32v32c0 17.6 14.4 32 32 32h32c17.6 0 32 14.4 32 32s-14.4 32-32 32h-32c-17.6 0-32 14.4-32 32v32c0 17.6-14.4 32-32 32s-32-14.4-32-32v-32c0-17.6-14.4-32-32-32h-32z" fill="#7A5965" /><path d="M512 376c-4.8 0-8-3.2-8-8V277.6c0-12-9.6-21.6-21.6-21.6H352c-32.8 0-49.6-26.4-49.6-52S319.2 152 352 152h216c36 0 52-20.8 52-40s-16-40-52-40c-4.8 0-8-3.2-8-8s3.2-8 8-8c44.8 0 68 28 68 56s-23.2 56-68 56H352c-23.2 0-33.6 18.4-33.6 36S328.8 240 352 240h130.4c20.8 0 37.6 16.8 37.6 37.6V368c0 4.8-3.2 8-8 8z" fill="#7A5965" /><path d="M650.4 712c-12.8 0-24.8-4.8-33.6-14.4-18.4-18.4-18.4-48.8 0-68 8.8-8.8 20.8-14.4 33.6-14.4s24.8 4.8 33.6 14.4 14.4 20.8 14.4 33.6-4.8 24.8-14.4 33.6-20.8 15.2-33.6 15.2z" fill="#CAE5CC" /><path d="M650.4 624c10.4 0 20.8 4 28 12 15.2 15.2 15.2 40.8 0 56.8-7.2 7.2-17.6 12-28 12s-20.8-4-28-12c-15.2-15.2-15.2-40.8 0-56.8 7.2-8 16.8-12 28-12m0-16c-14.4 0-28.8 5.6-39.2 16.8-21.6 21.6-21.6 57.6 0 79.2 11.2 11.2 25.6 16.8 39.2 16.8 14.4 0 28.8-5.6 39.2-16.8 21.6-21.6 21.6-57.6 0-79.2-10.4-11.2-24.8-16.8-39.2-16.8z" fill="#7A5965" /><path d="M752 618.4c-12.8 0-24.8-4.8-33.6-14.4S704 583.2 704 570.4s4.8-24.8 14.4-33.6c8.8-8.8 20.8-14.4 33.6-14.4s24.8 4.8 33.6 14.4c8.8 8.8 14.4 20.8 14.4 33.6s-4.8 24.8-14.4 33.6-20.8 14.4-33.6 14.4z" fill="#CAE5CC" /><path d="M752 530.4c10.4 0 20.8 4 28 12 15.2 15.2 15.2 40.8 0 56.8-7.2 7.2-17.6 12-28 12s-20.8-4-28-12c-15.2-15.2-15.2-40.8 0-56.8 7.2-8 17.6-12 28-12m0-16c-14.4 0-28.8 5.6-39.2 16.8-21.6 21.6-21.6 57.6 0 79.2 11.2 11.2 25.6 16.8 39.2 16.8s28.8-5.6 39.2-16.8c21.6-21.6 21.6-57.6 0-79.2-10.4-11.2-24.8-16.8-39.2-16.8z" fill="#7A5965" /><path d="M752 805.6c-12.8 0-24.8-4.8-33.6-14.4-8.8-8.8-14.4-20.8-14.4-33.6s4.8-24.8 14.4-33.6 20.8-14.4 33.6-14.4 24.8 4.8 33.6 14.4 14.4 20.8 14.4 33.6-4.8 24.8-14.4 33.6c-8.8 9.6-20.8 14.4-33.6 14.4z" fill="#CAE5CC" /><path d="M752 717.6c10.4 0 20.8 4 28 12 15.2 15.2 15.2 40.8 0 56.8-7.2 7.2-17.6 12-28 12s-20.8-4-28-12c-15.2-15.2-15.2-40.8 0-56.8 7.2-8 17.6-12 28-12m0-16c-14.4 0-28.8 5.6-39.2 16.8-21.6 21.6-21.6 57.6 0 79.2 11.2 11.2 25.6 16.8 39.2 16.8s28.8-5.6 39.2-16.8c21.6-21.6 21.6-57.6 0-79.2-10.4-11.2-24.8-16.8-39.2-16.8z" fill="#7A5965" /><path d="M853.6 712c-12.8 0-24.8-4.8-33.6-14.4s-14.4-20.8-14.4-33.6 4.8-24.8 14.4-33.6 20.8-14.4 33.6-14.4 24.8 4.8 33.6 14.4c18.4 18.4 18.4 48.8 0 68-8.8 8.8-20.8 13.6-33.6 13.6z" fill="#CAE5CC" /><path d="M853.6 624c10.4 0 20.8 4 28 12 15.2 15.2 15.2 40.8 0 56.8-7.2 7.2-17.6 12-28 12s-20.8-4-28-12c-15.2-15.2-15.2-40.8 0-56.8 7.2-8 17.6-12 28-12m0-16c-14.4 0-28.8 5.6-39.2 16.8-21.6 21.6-21.6 57.6 0 79.2 11.2 11.2 25.6 16.8 39.2 16.8 14.4 0 28.8-5.6 39.2-16.8 21.6-21.6 21.6-57.6 0-79.2-10.4-11.2-24.8-16.8-39.2-16.8z" fill="#7A5965" /></svg>